# xmcd
#
# Track frame offsets:
#	150
#	18837
#	36114
#	67691
#	83421
#	104851
#	118683
#	131416
#	143266
#	162534
#
# Disc length: 2298 seconds
#
# Revision: 0
# Processed by: cddbd v1.4PL0 Copyright (c) Steve Scherf et al.
# Submitted via: dBpowerAMP V4.0
#
DISCID=7608f80a
DTITLE=Stew Moss - The Plum
DYEAR=2003
DGENRE=Blues
TTITLE0=The Monkey Song
TTITLE1=Get Back Home
TTITLE2=St James Infirmary
TTITLE3=Until That Day
TTITLE4=John Henry
TTITLE5=Love My Baby
TTITLE6=Cuttin Up Onions
TTITLE7=That Ol Gospel Ship
TTITLE8=The Plum
TTITLE9=Osama Yo Mama
EXTD=
EXTT0=
EXTT1=
EXTT2=
EXTT3=
EXTT4=
EXTT5=
EXTT6=
EXTT7=
EXTT8=
EXTT9=
PLAYORDER=
